<svg width="17" height="17" viewBox="0 0 17 17" fill="none" xmlns="http://www.w3.org/2000/svg">
<path d="M8.49995 0.0338745C3.73081 0.0338745 0.0338135 3.52724 0.0338135 8.2458C0.0338135 10.7141 1.04535 12.8465 2.69252 14.3199C2.83102 14.4435 2.91433 14.6172 2.92009 14.8025L2.96614 16.3087C2.98071 16.7889 3.47716 17.1015 3.91638 16.9074L5.59674 16.1655C5.73931 16.1028 5.89881 16.091 6.04883 16.1326C6.82128 16.345 7.64284 16.4581 8.49961 16.4581C13.2688 16.4581 16.9657 12.9647 16.9657 8.24614C16.9657 3.52758 13.2691 0.0338745 8.49995 0.0338745ZM13.7462 6.05449L10.7987 10.6098C10.649 10.8411 10.3405 10.9071 10.1092 10.7575L7.37869 8.9908C7.27304 8.9224 7.13622 8.92443 7.0326 8.99588L3.95499 11.1185C3.50594 11.428 2.957 10.8953 3.25332 10.4375L6.20122 5.88212C6.3509 5.65083 6.65941 5.5848 6.89037 5.73447L9.62154 7.50148C9.7272 7.56988 9.86401 7.56785 9.96764 7.4964L13.0446 5.37417C13.4936 5.06431 14.0426 5.59733 13.7462 6.05516V6.05449Z" fill="white"/>
</svg>
